<?xml version="1.0" encoding="utf-8"?>
<!-- Generator: Adobe Illustrator 21.0.0, SVG Export Plug-In . SVG Version: 6.00 Build 0)  -->
<svg version="1.1" id="图层_1" xmlns="http://www.w3.org/2000/svg" xmlns:xlink="http://www.w3.org/1999/xlink" x="0px" y="0px"
	 viewBox="0 0 200 200" style="enable-background:new 0 0 200 200;" xml:space="preserve">
<style type="text/css">
	.st0{fill:#FFFFFF;}
</style>
<path class="st0" d="M123,44.3h41.4L120.6,0.5v41.4C120.6,43.1,121.8,44.3,123,44.3z"/>
<path class="st0" d="M122.8,118.4H42.1c-2.9,0-5.4-2.4-5.4-5.4s2.4-5.4,5.4-5.4h84c2.7,0,4.6,1.9,5.1,4.4c7.8-4.6,16.8-7.3,26.6-7.3
	c2.4,0,4.9,0.2,7.1,0.5V54.8H123c-7.1,0-12.9-5.8-12.9-12.9V0H10.5C4.6,0,0,4.6,0,10.5v168.1c0,5.8,4.6,10.5,10.5,10.5h105.2
	c-6.6-8.8-10.5-19.7-10.5-31.4C105.2,142,112.1,127.9,122.8,118.4L122.8,118.4z M42.1,76.2h84c2.9,0,5.4,2.4,5.4,5.4
	s-2.4,5.4-5.4,5.4h-84c-2.9,0-5.4-2.4-5.4-5.4S39.2,76.2,42.1,76.2z"/>
<path class="st0" d="M157.6,115.7c-23.1,0-42.1,18.8-42.1,42.1c0,23.1,18.8,42.1,42.1,42.1c23.4-0.2,42.1-19,42.1-42.4
	C199.8,134.5,181,115.7,157.6,115.7z M157.6,183.9c-2.9,0-5.4-2.4-5.4-5.4c0-2.9,2.4-5.4,5.4-5.4s5.4,2.4,5.4,5.4
	C163,181.7,160.5,183.9,157.6,183.9z M157.6,168.1c-2.9,0-5.4-28.7-5.4-31.4s2.4-5.4,5.4-5.4s5.4,2.4,5.4,5.4
	S160.5,168.1,157.6,168.1L157.6,168.1z"/>
</svg>
